<?xml version="1.0" encoding="utf-8"?>
<!-- Generator: Adobe Illustrator 21.0.0, SVG Export Plug-In . SVG Version: 6.00 Build 0)  -->
<svg version="1.1" id="Layer_1" xmlns="http://www.w3.org/2000/svg" xmlns:xlink="http://www.w3.org/1999/xlink" x="0px" y="0px"
	 viewBox="0 0 275 58.6" style="enable-background:new 0 0 275 58.6;" xml:space="preserve">
<style type="text/css">
	.st0{fill:#2E4B8D;}
	.st1{fill:url(#SVGID_1_);}
</style>
<path class="st0" d="M13.7,43.3C5,43.3-0.5,38.8,0,31.4h8.8c0.6,2.9,3.9,3.9,6.5,3.9c3.5,0,6.3-1,6.7-3c0.4-1.9-0.6-2.7-6.4-3.6
	C9.7,27.8,1.9,26.2,3.4,18.6c1.1-5.3,6.8-10.9,16.7-10.9c7.8,0,12.7,4.2,12.6,10.6h-9.1c-0.2-1.6-1.9-2.8-5.1-2.8
	c-4,0-6,1.4-6.2,2.7c-0.3,1.8,2,2.4,6.1,3c8.1,1.4,13.9,3.2,12.4,10.6C29.5,38.5,22.4,43.3,13.7,43.3z M83.1,42.5h-8.7l4-19.8
	c0.4-1.9,0.6-6.5-5.1-6.5c-3.8,0-7.1,2.6-7.9,6.5l-4,19.8h-8.7l4-19.8c0.4-1.9,0.7-6.5-5-6.5c-3.9,0-7.1,2.6-7.9,6.5l-4,19.8h-8.7
	L35,22.9c1.7-8.6,9-15.2,18.3-15.2c4.6,0,8,1.9,9.8,4.8c3.2-3,7.4-4.8,11.8-4.8c9.5,0,13.8,6.3,12,15.2L83.1,42.5z M120.5,42.5h-8.2
	L113,39c-3.1,2.8-7.1,4.3-11.2,4.3c-9,0-14.7-7.9-12.7-17.7c1.9-9.8,10.7-17.8,21-17.8c10.2,0,15.8,8.1,13.8,17.8L120.5,42.5z
	 M108.4,15.9c-4.8,0-9.5,4.2-10.7,9.7c-1.1,5.4,2,9.6,6.8,9.6s9.6-4.3,10.6-9.6C116.2,20.3,113.2,15.9,108.4,15.9z M145.3,16l1-5.1
	l0.6-3C136.5,7,128.9,13.6,127,22.9l-3.9,19.6h8.7l3.9-19.6C136.6,18.4,140.5,15.5,145.3,16z M153.4,28.3l2.4-12l0-0.1l11.7-8.4h-10
	l1.6-7.8h-8.7l-5.7,28.3c-1.9,9.3,2.2,15.3,12.4,14.2l1.2-5.8l0.4-2.1C154.3,34.8,152.5,33,153.4,28.3z"/>
<linearGradient id="SVGID_1_" gradientUnits="userSpaceOnUse" x1="213.1044" y1="644.6809" x2="213.1044" y2="594.2429" gradientTransform="matrix(1 0 0 1 0 -587.2)">
	<stop  offset="0" style="stop-color:#C3D941"/>
	<stop  offset="1" style="stop-color:#39AE4B"/>
</linearGradient>
<path class="st1" d="M231.5,42.5h-8.2L224,39c-3.1,2.8-7.1,4.3-11.2,4.3c-9,0-14.7-7.9-12.7-17.7c1.9-9.8,10.7-17.8,21-17.8
	c10.2,0,15.8,8.1,13.8,17.8L231.5,42.5z M219.4,15.9c-4.8,0-9.5,4.2-10.7,9.7c-1.1,5.4,2,9.6,6.8,9.6s9.6-4.3,10.6-9.6
	C227.3,20.3,224.3,15.9,219.4,15.9z M177.8,43.1c-4,0-7.1-1.3-9.2-4l-3.6,18.4h-8.8l6.3-32.3c1.9-9.8,10.7-17.8,21-17.8
	c10.3,0,15.9,8,14,17.8C195.7,35.1,186.8,43.1,177.8,43.1z M182,15.6c-4.9,0-9.6,4.3-10.6,9.6c-1,5.4,2,9.8,6.8,9.8
	c4.9,0,9.6-4.2,10.7-9.8C189.9,19.7,186.8,15.6,182,15.6z M263.4,42.8c-1.7,8.8-8.7,14.7-17.5,14.7c-7.2,0-12.2-4.7-12-11.5h8.7
	c0,2.4,1.9,3.6,4.9,3.6c4.6,0,6.8-3.2,7.4-6.3l0.7-3.8c-2.3,1.6-5,2.7-8.1,2.7c-8,0-12.3-5.8-10.6-14.4l3.7-19.2h8.4l-3.7,19.2
	c-0.3,1.9-0.6,6.4,4.9,6.4c3.8,0,6.9-2.7,7.6-6.4l3.7-19.2h8.4L263.4,42.8z"/>
</svg>
